<?xml version="1.0" encoding="UTF-8" standalone="no"?>
<svg
   width="20"
   height="20"
   overflow="hidden"
   version="1.1"
   id="svg21"
   sodipodi:docname="marginalia.svg"
   inkscape:version="1.2.2 (732a01da63, 2022-12-09)"
   xmlns:inkscape="http://www.inkscape.org/namespaces/inkscape"
   xmlns:sodipodi="http://sodipodi.sourceforge.net/DTD/sodipodi-0.dtd"
   xmlns="http://www.w3.org/2000/svg"
   xmlns:svg="http://www.w3.org/2000/svg"
   xmlns:rdf="http://www.w3.org/1999/02/22-rdf-syntax-ns#"
   xmlns:cc="http://creativecommons.org/ns#"
   xmlns:dc="http://purl.org/dc/elements/1.1/">
  <sodipodi:namedview
     id="namedview10"
     pagecolor="#ffffff"
     bordercolor="#000000"
     borderopacity="0.25"
     inkscape:showpageshadow="2"
     inkscape:pageopacity="0.0"
     inkscape:pagecheckerboard="0"
     inkscape:deskcolor="#d1d1d1"
     showgrid="false"
     inkscape:zoom="22.627417"
     inkscape:cx="14.208427"
     inkscape:cy="6.3860581"
     inkscape:window-width="1920"
     inkscape:window-height="991"
     inkscape:window-x="-9"
     inkscape:window-y="-9"
     inkscape:window-maximized="1"
     inkscape:current-layer="svg21" />
  <metadata
     id="metadata25">
    <rdf:RDF>
      <cc:Work
         rdf:about="">
        <dc:format>image/svg+xml</dc:format>
        <dc:type
           rdf:resource="http://purl.org/dc/dcmitype/StillImage" />
      </cc:Work>
    </rdf:RDF>
  </metadata>
  <defs
     id="defs5">
    <clipPath
       id="clip0">
      <rect
         x="1721"
         y="1871"
         width="424"
         height="309"
         id="rect2" />
    </clipPath>
    <clipPath
       id="clip0-7">
      <rect
         x="637"
         y="224"
         width="185"
         height="185"
         id="rect850" />
    </clipPath>
  </defs>
  <rect
     style="fill:#000000;fill-opacity:0.965318;stroke:#42a25a;stroke-width:0;stroke-dasharray:none;stroke-opacity:0.604046"
     id="rect492"
     width="6.9999967"
     height="1.4999992"
     x="4.3073916e-07"
     y="3.2500005"
     ry="0.74999958" />
  <rect
     style="fill:#000000;fill-opacity:0.965318;stroke:#42a25a;stroke-width:0;stroke-dasharray:none;stroke-opacity:0.604046"
     id="rect492-4"
     width="17.172426"
     height="0.91995054"
     x="1.4137869"
     y="-9.4599752"
     ry="0.45997527"
     transform="rotate(90)" />
  <rect
     style="fill:#000000;fill-opacity:0.965318;stroke:#42a25a;stroke-width:0;stroke-dasharray:none;stroke-opacity:0.604046"
     id="rect492-6"
     width="5.031249"
     height="1.4999988"
     x="1.9687502"
     y="7.2500005"
     ry="0.7499994" />
  <rect
     style="fill:#000000;fill-opacity:0.965318;stroke:#42a25a;stroke-width:0;stroke-dasharray:none;stroke-opacity:0.604046"
     id="rect492-1"
     width="6.9999967"
     height="1.4999992"
     x="4.3073916e-07"
     y="11.250001"
     ry="0.74999958" />
  <rect
     style="fill:#000000;fill-opacity:0.965318;stroke:#42a25a;stroke-width:0;stroke-dasharray:none;stroke-opacity:0.604046"
     id="rect492-6-1"
     width="5.031249"
     height="1.4999988"
     x="1.9687502"
     y="15.25"
     ry="0.7499994" />
  <path
     d="m 19.252542,10.884363 c 0.09792,0.283685 0.335547,0.398586 0.53101,0.256626 0.190951,-0.138697 0.271938,-0.498539 0.175949,-0.7749 -0.08849,-0.248868 -0.200412,-0.4828415 -0.327238,-0.6933817 -0.193916,-0.3219351 -0.541892,-0.7715445 -1.015628,-0.7715445 -0.234965,0 -0.446617,0.1131018 -0.622646,0.238356 -0.173493,0.1234289 -0.336178,0.2752472 -0.500453,0.4221003 -0.328894,0.2939989 -0.58646,0.4898179 -0.856542,0.4898179 -0.149739,0 -0.182952,-0.091366 -0.246999,-0.2782429 -0.0453,-0.1322554 -0.126067,-0.3685916 -0.274825,-0.5538417 -0.17436,-0.217104 -0.39694,-0.3181896 -0.665985,-0.3181896 -0.456639,0 -0.841226,0.3147048 -1.209469,0.6717348 -0.309725,0.2999387 -0.511121,0.4785394 -0.770206,0.4785394 -0.126001,0 -0.177763,-0.04277 -0.203275,-0.06972 C 13.208383,9.920595 13.16946,9.82613 13.132617,9.7366783 13.060009,9.5604575 12.983299,9.3842204 12.880691,9.2411349 12.731916,9.0336648 12.535527,8.9011633 12.281707,8.9011633 c -0.230456,0 -0.451923,0.1088623 -0.635661,0.2344746 -0.187898,0.1284369 -0.364651,0.2941299 -0.51281,0.4506678 -0.182003,0.1922606 -0.357414,0.4030265 -0.517268,0.6335893 -0.154624,0.224602 -0.154624,0.588759 0,0.813362 0.154566,0.224524 0.405206,0.224488 0.559844,1.39e-4 0.130881,-0.187925 0.274507,-0.359768 0.42317,-0.516826 0.124033,-0.131032 0.256607,-0.252908 0.384236,-0.340141 0.223481,-0.152775 0.352165,-0.123698 0.482401,0.179825 0.065,0.151171 0.166668,0.378031 0.334866,0.555716 0.178644,0.188755 0.399096,0.289738 0.669025,0.289738 0.517007,0 0.901927,-0.373406 1.183926,-0.646991 0.239476,-0.232172 0.495191,-0.503285 0.795749,-0.503285 0.141385,0 0.178196,0.07841 0.239752,0.257209 0.07304,0.213036 0.156038,0.417945 0.282073,0.574878 0.174362,0.217101 0.39694,0.318189 0.665985,0.318189 0.521749,0 0.95709,-0.37932 1.271575,-0.660456 0.142419,-0.127683 0.283217,-0.261652 0.433712,-0.368717 0.127095,-0.09042 0.212372,-0.1211 0.274353,-0.1211 0.120213,0 0.267148,0.125531 0.419667,0.37873 0.08324,0.138063 0.157419,0.291495 0.21624,0.454193 z"
     fill="#0f0f0f"
     id="path524-0"
     style="stroke-width:0.477149" />
  <path
     d="m 19.252542,6.8422 c 0.09792,0.2836859 0.335547,0.3985858 0.53101,0.2566268 0.190951,-0.1386982 0.271938,-0.4985385 0.175949,-0.7749 C 19.870993,6.0750575 19.759089,5.8410841 19.632263,5.6305448 19.438347,5.3086093 19.090371,4.859 18.616635,4.859 c -0.234965,0 -0.446617,0.1131017 -0.622646,0.2383558 -0.173493,0.123429 -0.336178,0.2752474 -0.500453,0.4221002 -0.328894,0.2939991 -0.58646,0.4898184 -0.856542,0.4898184 -0.149739,0 -0.182952,-0.091387 -0.246999,-0.2782435 C 16.344731,5.5987759 16.263927,5.3624395 16.11517,5.1771893 15.940809,4.9600855 15.718229,4.859 15.449184,4.859 c -0.456639,0 -0.841226,0.3147046 -1.209469,0.6717348 -0.309724,0.2999385 -0.51112,0.4785396 -0.770206,0.4785396 -0.126001,0 -0.177763,-0.042774 -0.203275,-0.069715 C 13.208382,5.878435 13.16947,5.7839726 13.132617,5.6945202 13.060025,5.5182998 12.983299,5.342063 12.880691,5.1989775 12.731916,4.9915072 12.535527,4.8590059 12.281707,4.8590059 c -0.230456,0 -0.451923,0.1088623 -0.635661,0.2344746 -0.187898,0.1284367 -0.364651,0.2941297 -0.51281,0.4506672 -0.182003,0.1922611 -0.357414,0.4030272 -0.517268,0.6335899 -0.154624,0.2246015 -0.154624,0.5887588 0,0.8133613 0.154566,0.2245247 0.405206,0.2244889 0.559844,1.389e-4 0.130881,-0.1879243 0.274507,-0.3597676 0.42317,-0.5168252 0.124033,-0.1310333 0.256607,-0.2529088 0.384236,-0.3401413 0.223481,-0.1527754 0.352165,-0.1236992 0.482401,0.1798239 0.065,0.1511709 0.166668,0.3780321 0.334866,0.5557171 0.178644,0.1887547 0.399096,0.289738 0.669025,0.289738 0.517007,0 0.901927,-0.3734061 1.183926,-0.6469914 0.239476,-0.2321721 0.495191,-0.5032845 0.795749,-0.5032845 0.141385,0 0.178196,0.078415 0.239752,0.2572091 0.07304,0.2130356 0.156038,0.4179452 0.282073,0.574877 0.174362,0.2171011 0.396941,0.3181898 0.665985,0.3181898 0.521749,0 0.95709,-0.3793213 1.271575,-0.660456 0.142419,-0.1276835 0.283217,-0.2616527 0.433712,-0.368718 0.127095,-0.090425 0.212372,-0.1211004 0.274353,-0.1211004 0.120213,0 0.267148,0.1255322 0.419667,0.3787314 0.08324,0.1380623 0.157419,0.2914939 0.21624,0.4541927 z"
     fill="#0f0f0f"
     id="path524-0-4"
     style="stroke-width:0.477149" />
  <path
     d="m 19.252543,14.926526 c 0.09792,0.283686 0.335547,0.398586 0.531009,0.256625 0.190951,-0.138697 0.271938,-0.498537 0.17595,-0.774898 -0.08849,-0.248869 -0.200412,-0.482844 -0.327238,-0.693382 -0.193916,-0.321936 -0.541892,-0.771544 -1.015628,-0.771544 -0.234965,0 -0.446617,0.113101 -0.622646,0.238355 -0.173493,0.123429 -0.336178,0.275247 -0.500453,0.422101 -0.328894,0.293999 -0.58646,0.489818 -0.856542,0.489818 -0.149739,0 -0.182952,-0.09136 -0.246999,-0.278245 -0.0453,-0.132254 -0.126068,-0.36859 -0.274825,-0.553841 -0.174361,-0.217103 -0.396941,-0.318188 -0.665986,-0.318188 -0.456639,0 -0.841226,0.314703 -1.209469,0.671734 -0.309724,0.299939 -0.51112,0.47854 -0.770206,0.47854 -0.126001,0 -0.177763,-0.04277 -0.203275,-0.06972 -0.05786,-0.06113 -0.09679,-0.155588 -0.133618,-0.24504 -0.07255,-0.17622 -0.149318,-0.352457 -0.251926,-0.495543 -0.148774,-0.20747 -0.345164,-0.339971 -0.598984,-0.339971 -0.230456,0 -0.451923,0.108862 -0.635661,0.234474 -0.187898,0.128438 -0.364651,0.294129 -0.51281,0.450668 -0.182003,0.192261 -0.357414,0.403027 -0.517268,0.633589 -0.154624,0.224602 -0.154624,0.58876 0,0.813362 0.154566,0.224525 0.405206,0.224489 0.559844,1.39e-4 0.130881,-0.187925 0.274507,-0.359768 0.42317,-0.516825 0.124033,-0.131034 0.256607,-0.252909 0.384236,-0.340142 0.223481,-0.152775 0.352165,-0.123699 0.482401,0.179824 0.065,0.151171 0.166668,0.378032 0.334866,0.555717 0.178644,0.188755 0.399096,0.289739 0.669025,0.289739 0.517007,0 0.901927,-0.373407 1.183926,-0.646992 0.239476,-0.232172 0.495191,-0.503284 0.795749,-0.503284 0.141385,0 0.178196,0.07842 0.239752,0.257209 0.07304,0.213035 0.156038,0.417944 0.282073,0.574876 0.174362,0.217101 0.396941,0.318191 0.665985,0.318191 0.52175,0 0.95709,-0.379322 1.271576,-0.660456 0.142418,-0.127684 0.283216,-0.261656 0.433712,-0.368719 0.127095,-0.09042 0.212371,-0.1211 0.274353,-0.1211 0.120213,0 0.267148,0.125532 0.419667,0.378731 0.08324,0.138063 0.157419,0.291495 0.21624,0.454194 z"
     fill="#0f0f0f"
     id="path524-0-3"
     style="stroke-width:0.477149" />
</svg>
