<?xml version="1.0" encoding="UTF-8" standalone="no"?>
<!-- Created with Inkscape (http://www.inkscape.org/) -->

<svg
   width="100mm"
   height="100mm"
   viewBox="0 0 100 100"
   version="1.1"
   id="svg5"
   xml:space="preserve"
   sodipodi:docname="striked-out.svg"
   inkscape:version="1.2.2 (732a01da63, 2022-12-09)"
   xmlns:inkscape="http://www.inkscape.org/namespaces/inkscape"
   xmlns:sodipodi="http://sodipodi.sourceforge.net/DTD/sodipodi-0.dtd"
   xmlns="http://www.w3.org/2000/svg"
   xmlns:svg="http://www.w3.org/2000/svg"><sodipodi:namedview
     id="namedview6"
     pagecolor="#ffffff"
     bordercolor="#000000"
     borderopacity="0.25"
     inkscape:showpageshadow="2"
     inkscape:pageopacity="0.0"
     inkscape:pagecheckerboard="0"
     inkscape:deskcolor="#d1d1d1"
     inkscape:document-units="mm"
     showgrid="false"
     inkscape:zoom="2"
     inkscape:cx="199.75"
     inkscape:cy="260.25"
     inkscape:window-width="1920"
     inkscape:window-height="991"
     inkscape:window-x="-9"
     inkscape:window-y="-9"
     inkscape:window-maximized="1"
     inkscape:current-layer="svg5"
     showguides="true" /><defs
     id="defs2"><rect
       x="108.89444"
       y="134.35029"
       width="169.70563"
       height="133.64318"
       id="rect956" /></defs><rect
     style="fill:#000000;fill-opacity:1;stroke:#cc3c3c;stroke-width:0;stroke-dasharray:none;stroke-dashoffset:0;stroke-opacity:0.802439"
     id="rect3037"
     width="73.02195"
     height="5.999999"
     x="13.489025"
     y="47" /><text
     xml:space="preserve"
     style="font-style:normal;font-variant:normal;font-weight:normal;font-stretch:normal;font-size:8.76325px;font-family:'Bell MT';-inkscape-font-specification:'Bell MT, Normal';font-variant-ligatures:normal;font-variant-caps:normal;font-variant-numeric:normal;font-variant-east-asian:normal;fill:#000000;fill-opacity:0;stroke:#9c9c9c;stroke-width:19.3205"
     x="37.137535"
     y="52.890419"
     id="text1996"><tspan
       sodipodi:role="line"
       id="tspan2098"
       x="37.137535"
       y="52.890419" /></text><path
     id="text835-6"
     style="font-style:normal;font-variant:normal;font-weight:bold;font-stretch:normal;font-size:137.965px;line-height:1.25;font-family:Calibri;-inkscape-font-specification:'Calibri, Bold';font-variant-ligatures:normal;font-variant-caps:normal;font-variant-numeric:normal;font-variant-east-asian:normal;fill:#000000;fill-opacity:1;stroke:none;stroke-width:3.44912"
     d="m 77.107697,59.000002 c 1.08109,2.552236 1.439729,4.760297 1.439729,8.25283 v 0 c 0,4.567159 -0.855861,8.57463 -2.567581,12.022388 -1.71171,3.447757 -4.03155,6.335814 -6.95949,8.664149 -2.92794,2.283568 -6.35138,4.007449 -10.27032,5.171613 -3.918928,1.164171 -8.108144,1.746258 -12.567619,1.746258 -3.018029,0 -5.833363,-0.246267 -8.445984,-0.738794 -2.567577,-0.492537 -4.842367,-1.074624 -6.824356,-1.746261 -1.981988,-0.716417 -3.648666,-1.455221 -5.000022,-2.216408 -1.306311,-0.761184 -2.252263,-1.432831 -2.83785,-2.014918 -0.585588,-0.582077 -1.013518,-1.410431 -1.28379,-2.485055 -0.225226,-1.119394 -0.33784,-2.708945 -0.33784,-4.768644 0,-1.388058 0.04504,-2.55224 0.135137,-3.492537 0.09009,-0.940298 0.225225,-1.701493 0.405406,-2.283582 0.225226,-0.58209 0.495499,-0.985075 0.810815,-1.208956 0.360361,-0.268656 0.765769,-0.402984 1.216222,-0.402984 0.630633,0 1.509017,0.380598 2.635147,1.14179 1.171176,0.716418 2.657671,1.522389 4.45948,2.417911 1.801809,0.895521 3.941462,1.723881 6.418948,2.485075 2.522531,0.716417 5.427955,1.074626 8.716256,1.074626 2.16217,0 4.099119,-0.246269 5.810837,-0.738806 1.711717,-0.537313 3.153168,-1.27612 4.324343,-2.216418 1.216221,-0.940298 2.139651,-2.104479 2.770281,-3.492537 0.63064,-1.388059 0.94595,-2.932837 0.94595,-4.634328 0,-1.970147 -0.540541,-3.649255 -1.62163,-5.037313 -1.081081,-1.432835 -2.50001,-2.686568 -4.256772,-3.761194 -2.07094,-1.20334 -1.098721,-0.797607 -3.305937,-1.737905"
     sodipodi:nodetypes="cssscsscccscssccscscsccssccc" /><path
     id="path7872"
     style="font-style:normal;font-variant:normal;font-weight:bold;font-stretch:normal;font-size:137.965px;line-height:1.25;font-family:Calibri;-inkscape-font-specification:'Calibri, Bold';font-variant-ligatures:normal;font-variant-caps:normal;font-variant-numeric:normal;font-variant-east-asian:normal;fill:#000000;fill-opacity:1;stroke:none;stroke-width:3.44912"
     d="m 26.827545,40.999998 c -2.437478,-5.590431 -2.089351,-7.463586 -2.089351,-11.090447 0,-4.164176 0.765772,-7.813436 2.297309,-10.947761 1.576582,-3.179102 3.671189,-5.798509 6.283811,-7.858209 2.657668,-2.1044744 5.765795,-3.6716405 9.324366,-4.7014899 3.603616,-1.0298494 7.409947,-1.5447751 11.41897,-1.5447751 2.072079,0 4.144165,0.156717 6.216241,0.4701487 2.07208,0.313433 4.00903,0.7388067 5.81084,1.2761194 1.80181,0.5373117 3.40092,1.1417904 4.79732,1.8134308 1.3964,0.6716407 2.31983,1.2313434 2.77028,1.6791031 0.45045,0.447762 0.74325,0.828359 0.87838,1.141791 0.18019,0.313434 0.31532,0.738807 0.405411,1.27612 0.135141,0.492537 0.225229,1.141792 0.270269,1.947761 0.0451,0.761193 0.0676,1.723882 0.0676,2.88806 0,1.298506 -0.0451,2.395523 -0.13514,3.291044 -0.045,0.895522 -0.15766,1.63433 -0.33784,2.216418 -0.13513,0.582089 -0.36036,1.007463 -0.67568,1.27612 -0.27027,0.268655 -0.65315,0.402984 -1.14865,0.402984 -0.4955,0 -1.28379,-0.313433 -2.36488,-0.940298 -1.08108,-0.626865 -2.40992,-1.298509 -3.9865,-2.014926 -1.57658,-0.761193 -3.40092,-1.432835 -5.473,-2.014924 -2.072078,-0.626865 -4.346868,-0.940299 -6.824354,-0.940299 -1.936944,0 -3.626144,0.246269 -5.067591,0.738806 -1.441446,0.447761 -2.65767,1.097015 -3.648665,1.947761 -0.945949,0.805969 -1.666674,1.791046 -2.162172,2.955223 -0.450451,1.164179 -0.675678,2.395524 -0.675678,3.69403 0,1.925372 0.518021,3.604479 1.55406,5.037314 1.081086,1.388058 2.500014,2.641792 4.256777,3.761193 3.500052,1.779349 7.91179,4.159165 8.085342,4.239702"
     sodipodi:nodetypes="cscccssssscccscccssccscccsccc" /></svg>
