<?xml version="1.0" encoding="UTF-8" standalone="no"?>
<!-- Uploaded to: SVG Repo, www.svgrepo.com, Transformed by: SVG Repo Mixer Tools -->

<svg
   width="20"
   height="20"
   viewBox="-0.5 0 7.8125 7.8125"
   fill="none"
   version="1.1"
   id="svg764"
   sodipodi:docname="pb.svg"
   inkscape:version="1.2.2 (732a01da63, 2022-12-09)"
   xmlns:inkscape="http://www.inkscape.org/namespaces/inkscape"
   xmlns:sodipodi="http://sodipodi.sourceforge.net/DTD/sodipodi-0.dtd"
   xmlns="http://www.w3.org/2000/svg"
   xmlns:svg="http://www.w3.org/2000/svg">
  <defs
     id="defs768" />
  <sodipodi:namedview
     id="namedview766"
     pagecolor="#ffffff"
     bordercolor="#000000"
     borderopacity="0.25"
     inkscape:showpageshadow="2"
     inkscape:pageopacity="0.0"
     inkscape:pagecheckerboard="0"
     inkscape:deskcolor="#d1d1d1"
     showgrid="false"
     inkscape:zoom="15.323851"
     inkscape:cx="7.504641"
     inkscape:cy="13.279952"
     inkscape:window-width="1920"
     inkscape:window-height="991"
     inkscape:window-x="-9"
     inkscape:window-y="-9"
     inkscape:window-maximized="1"
     inkscape:current-layer="svg764" />
  <g
     id="SVGRepo_bgCarrier"
     stroke-width="0" />
  <g
     id="SVGRepo_tracerCarrier"
     stroke-linecap="round"
     stroke-linejoin="round" />
  <path
     fill-rule="evenodd"
     clip-rule="evenodd"
     d="M 2.444919,0.10400725 C 2.511519,0.03740725 2.6018381,-1.5e-8 2.696019,-1.5e-8 h 2.8409158 c 0.5883873,0 1.0653383,0.476967305 1.0653383,1.065338315 V 6.7471617 C 6.6022731,7.335549 6.1253221,7.8125 5.5369348,7.8125 H 1.2755652 C 0.68719422,7.8125 0.21022689,7.335549 0.21022689,6.7471617 V 2.4857921 c 0,-0.094181 0.0373909,-0.1845 0.10400728,-0.2511 z m 3.0920158,0.6062237 H 3.0511345 V 2.4857921 c 0,0.1961264 -0.1589809,0.3551155 -0.3551155,0.3551155 H 0.92045787 v 3.9062541 c 0,0.1961264 0.15898913,0.3551155 0.35510733,0.3551155 h 4.2613696 c 0.1961264,0 0.3551073,-0.1589891 0.3551073,-0.3551155 V 1.0653383 c 0,-0.19611824 -0.1589809,-0.35510735 -0.3551073,-0.35510735 z M 1.4226579,2.1306848 H 2.3409117 V 1.212431 Z m 0.2080228,2.1306766 c 0,-0.1961264 0.1589891,-0.3551073 0.3551155,-0.3551073 h 2.8409076 c 0.1961264,0 0.3551155,0.1589809 0.3551155,0.3551073 0,0.1961346 -0.1589891,0.3551155 -0.3551155,0.3551155 H 1.9857962 c -0.1961264,0 -0.3551155,-0.1589809 -0.3551155,-0.3551155 z m 0,1.4204538 c 0,-0.1961264 0.1589891,-0.3551073 0.3551155,-0.3551073 h 2.8409076 c 0.1961264,0 0.3551155,0.1589809 0.3551155,0.3551073 0,0.1961346 -0.1589891,0.3551155 -0.3551155,0.3551155 H 1.9857962 c -0.1961264,0 -0.3551155,-0.1589809 -0.3551155,-0.3551155 z"
     fill="#000000"
     id="path135"
     style="stroke-width:0.355113;fill:#907114;fill-opacity:1" />
</svg>
