<?xml version="1.0" encoding="UTF-8" standalone="no"?>
<!-- Uploaded to: SVG Repo, www.svgrepo.com, Transformed by: SVG Repo Mixer Tools -->

<svg
   fill="#000000"
   width="100px"
   height="100px"
   viewBox="0 0 24 24"
   transform="rotate(0)matrix(1, 0, 0, 1, 0, 0)"
   stroke="#000000"
   version="1.1"
   id="svg7"
   sodipodi:docname="place.svg"
   inkscape:version="1.2.2 (732a01da63, 2022-12-09)"
   xmlns:inkscape="http://www.inkscape.org/namespaces/inkscape"
   xmlns:sodipodi="http://sodipodi.sourceforge.net/DTD/sodipodi-0.dtd"
   xmlns="http://www.w3.org/2000/svg"
   xmlns:svg="http://www.w3.org/2000/svg">
  <defs
     id="defs11" />
  <sodipodi:namedview
     id="namedview9"
     pagecolor="#ffffff"
     bordercolor="#000000"
     borderopacity="0.25"
     inkscape:showpageshadow="2"
     inkscape:pageopacity="0.0"
     inkscape:pagecheckerboard="0"
     inkscape:deskcolor="#d1d1d1"
     showgrid="false"
     inkscape:zoom="4.02"
     inkscape:cx="-5.0995025"
     inkscape:cy="66.791045"
     inkscape:window-width="1920"
     inkscape:window-height="991"
     inkscape:window-x="-9"
     inkscape:window-y="-9"
     inkscape:window-maximized="1"
     inkscape:current-layer="svg7" />
  <g
     id="SVGRepo_bgCarrier"
     stroke-width="0" />
  <g
     id="SVGRepo_tracerCarrier"
     stroke-linecap="round"
     stroke-linejoin="round" />
  <g
     id="SVGRepo_iconCarrier"
     style="fill:#1e85f7;fill-opacity:1;stroke-width:0.841976;stroke-dasharray:none;stroke:#000000;stroke-opacity:1"
     transform="matrix(1.1401934,0,0,1.1401934,-1.6823208,-1.8003787)">
    <path
       d="M 12,2 C 8.13,2 5,5.13 5,9 c 0,5.25 7,13 7,13 0,0 7,-7.75 7,-13 0,-3.87 -3.13,-7 -7,-7 z m 0,9.5 C 10.62,11.5 9.5,10.38 9.5,9 9.5,7.62 10.62,6.5 12,6.5 c 1.38,0 2.5,1.12 2.5,2.5 0,1.38 -1.12,2.5 -2.5,2.5 z"
       id="path4"
       style="fill:#1e85f7;fill-opacity:1;stroke-width:0.841976;stroke-dasharray:none;stroke:#000000;stroke-opacity:1" />
  </g>
</svg>
