<?xml version="1.0" encoding="utf-8"?>
<!-- Uploaded to: SVG Repo, www.svgrepo.com, Generator: SVG Repo Mixer Tools -->
<svg fill="#000000" width="800px" height="800px" viewBox="0 0 32 32" version="1.1" xmlns="http://www.w3.org/2000/svg">
<title>receive-envelope</title>
<path d="M0 26.016v-12q0-2.496 1.76-4.256t4.256-1.76h0.352q-0.736 2.048-0.032 4h-0.32q-0.672 0-1.28 0.512l11.264 7.488 11.264-7.488q-0.576-0.512-1.248-0.512h-0.352q0.704-1.952-0.032-4h0.384q2.464 0 4.224 1.76t1.76 4.256v12q0 2.496-1.76 4.224t-4.224 1.76h-20q-2.496 0-4.256-1.76t-1.76-4.224zM4 24l6.016-1.984-5.408 5.408q0.544 0.576 1.408 0.576h20q0.8 0 1.408-0.576l-5.408-5.408 5.984 1.984v-8l-12 8-12-8v8zM10.048 10.4q-0.128-0.576 0.096-1.152t0.736-0.896 1.12-0.352h2.016v-5.984q0-0.832 0.576-1.408t1.408-0.608 1.408 0.608 0.608 1.408v5.984h1.984q0.608 0 1.12 0.352t0.736 0.896q0.224 0.576 0.096 1.152t-0.544 1.024l-4 4q-0.576 0.576-1.408 0.576t-1.408-0.576l-4-4q-0.448-0.416-0.544-1.024z"></path>
</svg>