<?xml version="1.0" standalone="no"?>
<!DOCTYPE svg PUBLIC "-//W3C//DTD SVG 20010904//EN"
 "http://www.w3.org/TR/2001/REC-SVG-20010904/DTD/svg10.dtd">
<svg version="1.0" xmlns="http://www.w3.org/2000/svg"
 width="220.000000pt" height="220.000000pt" viewBox="0 0 220.000000 220.000000"
 preserveAspectRatio="xMidYMid meet">

<g transform="translate(0.000000,220.000000) scale(0.100000,-0.100000)"
fill="#000000" stroke="none">
<path d="M872 2170 c-221 -48 -401 -149 -563 -317 -503 -520 -367 -1379 273
-1723 270 -145 598 -168 888 -64 271 97 487 291 611 549 144 298 151 628 20
927 -55 123 -121 219 -225 324 -146 146 -309 241 -513 295 -117 32 -364 36
-491 9z m338 0 c327 -37 610 -210 788 -480 241 -366 239 -828 -6 -1199 -49
-74 -170 -201 -251 -262 -90 -67 -247 -143 -361 -174 -118 -33 -315 -44 -441
-26 -388 56 -733 342 -858 713 -48 140 -56 192 -55 363 1 140 4 172 27 260 34
126 109 280 186 383 227 300 604 464 971 422z"/>
<path d="M1043 2143 c32 -2 81 -2 110 0 29 2 3 3 -58 3 -60 0 -84 -1 -52 -3z"/>
<path d="M933 2133 c9 -2 23 -2 30 0 6 3 -1 5 -18 5 -16 0 -22 -2 -12 -5z"/>
<path d="M1243 2133 c9 -2 23 -2 30 0 6 3 -1 5 -18 5 -16 0 -22 -2 -12 -5z"/>
<path d="M878 2123 c7 -3 16 -2 19 1 4 3 -2 6 -13 5 -11 0 -14 -3 -6 -6z"/>
<path d="M1298 2123 c6 -2 18 -2 25 0 6 3 1 5 -13 5 -14 0 -19 -2 -12 -5z"/>
<path d="M838 2113 c7 -3 16 -2 19 1 4 3 -2 6 -13 5 -11 0 -14 -3 -6 -6z"/>
<path d="M1348 2113 c7 -3 16 -2 19 1 4 3 -2 6 -13 5 -11 0 -14 -3 -6 -6z"/>
<path d="M798 2103 c7 -3 16 -2 19 1 4 3 -2 6 -13 5 -11 0 -14 -3 -6 -6z"/>
<path d="M1429 2089 c30 -10 56 -17 58 -15 5 5 -86 36 -101 35 -6 0 13 -9 43
-20z"/>
<path d="M720 2080 c-8 -5 -10 -10 -5 -10 6 0 17 5 25 10 8 5 11 10 5 10 -5 0
-17 -5 -25 -10z"/>
<path d="M971 2048 c4 -24 8 -49 9 -57 0 -8 2 -12 5 -9 8 8 -6 108 -15 108 -4
0 -4 -19 1 -42z"/>
<path d="M1078 2084 c-4 -3 -3 -14 2 -23 5 -9 15 -31 22 -48 7 -18 16 -33 20
-33 11 0 11 1 -15 59 -12 29 -26 49 -29 45z"/>
<path d="M1181 2043 c-1 -26 -4 -50 -7 -55 -3 -4 0 -8 5 -8 6 0 11 8 11 18 1
9 3 34 6 55 3 20 2 37 -3 37 -5 0 -10 -21 -12 -47z"/>
<path d="M1241 2062 c-1 -12 -7 -25 -15 -28 -11 -4 -12 -11 -3 -35 6 -16 15
-29 20 -29 4 0 3 10 -4 21 -8 16 -8 27 1 44 7 13 10 29 7 37 -3 7 -6 3 -6 -10z"/>
<path d="M615 2032 c-102 -54 -161 -97 -243 -176 -71 -68 -155 -173 -182 -226
-18 -35 -1 -15 45 55 90 136 229 258 390 342 44 23 76 42 70 42 -5 0 -41 -16
-80 -37z"/>
<path d="M871 2068 c-2 -19 22 -108 29 -108 4 0 2 21 -6 48 -17 56 -22 69 -23
60z"/>
<path d="M1315 2035 c2 -22 5 -48 5 -57 0 -10 4 -18 9 -18 11 0 3 63 -11 95
-6 14 -7 8 -3 -20z"/>
<path d="M1501 2066 c10 -9 129 -66 129 -61 0 5 -116 65 -126 65 -4 0 -5 -2
-3 -4z"/>
<path d="M1457 1983 c7 -71 11 -75 12 -10 1 31 -3 57 -8 57 -5 0 -6 -21 -4
-47z"/>
<path d="M700 2013 c0 -10 110 -75 110 -64 0 4 -10 13 -22 19 -13 6 -38 21
-55 32 -18 12 -33 18 -33 13z"/>
<path d="M1645 1994 c6 -5 45 -36 87 -68 129 -96 214 -198 295 -351 49 -93 58
-94 12 -2 -67 131 -177 266 -289 351 -56 43 -123 88 -105 70z"/>
<path d="M1530 1975 c0 -9 -7 -30 -16 -46 -8 -17 -14 -35 -12 -40 2 -6 15 15
29 46 18 39 22 55 12 55 -7 0 -13 -7 -13 -15z"/>
<path d="M587 1954 c-3 -3 4 -23 17 -43 13 -20 25 -43 28 -51 2 -7 7 -10 9 -5
7 13 -45 107 -54 99z"/>
<path d="M517 1914 c-5 -6 7 -23 51 -73 28 -31 19 -11 -19 41 -14 21 -29 35
-32 32z"/>
<path d="M1155 1888 c22 -12 45 -37 45 -50 0 -4 -45 -8 -100 -8 -89 0 -99 2
-93 17 4 11 3 14 -5 9 -7 -4 -12 -14 -12 -22 0 -11 23 -14 133 -13 72 1 122 4
110 6 -13 2 -23 11 -23 18 0 15 -47 55 -64 55 -6 0 -2 -6 9 -12z"/>
<path d="M1657 1856 c-20 -24 -34 -46 -30 -49 5 -5 42 39 67 81 16 26 -3 10
-37 -32z"/>
<path d="M420 1813 c0 -30 34 -63 63 -62 19 0 19 2 -6 11 -17 6 -35 23 -43 42
-11 26 -13 28 -14 9z"/>
<path d="M1295 1809 c36 -14 80 -43 118 -78 l29 -26 -34 -6 -33 -6 37 -2 c45
-1 88 -17 88 -31 0 -7 -128 -10 -402 -10 l-403 1 -35 -30 c-19 -16 -32 -30
-29 -30 3 -1 18 10 33 24 l27 25 415 0 c314 0 421 -3 437 -12 18 -11 -7 -14
-158 -18 l-180 -6 188 -2 c178 -2 227 -9 227 -32 0 -6 -193 -10 -521 -10 -413
0 -519 3 -513 13 5 7 0 6 -11 -3 -16 -13 2 -15 176 -17 529 -7 919 -7 919 0 0
4 -7 7 -15 7 -8 0 -19 9 -25 20 -6 11 -15 20 -21 20 -12 0 -42 22 -137 101
-88 73 -140 107 -177 113 l-30 6 30 -11z"/>
<path d="M854 1784 c-18 -14 -18 -14 6 -3 31 14 36 19 24 19 -6 0 -19 -7 -30
-16z"/>
<path d="M1765 1760 c-21 -22 -36 -42 -34 -45 3 -2 23 13 44 35 21 22 36 42
34 45 -3 2 -23 -13 -44 -35z"/>
<path d="M780 1725 l-44 -45 89 2 90 2 -72 3 c-40 2 -73 7 -73 10 0 4 14 22
32 40 18 18 30 33 27 33 -3 0 -25 -20 -49 -45z"/>
<path d="M381 1731 c-8 -5 -21 -7 -30 -4 -13 5 -14 3 -4 -7 10 -11 18 -11 38
-2 13 6 32 9 42 5 11 -4 14 -3 9 5 -8 14 -35 15 -55 3z"/>
<path d="M1885 1614 c-27 -18 -46 -34 -42 -34 15 0 97 52 97 61 0 12 2 13 -55
-27z"/>
<path d="M838 1603 c68 -2 176 -2 240 0 64 1 9 3 -123 3 -132 0 -185 -2 -117
-3z"/>
<path d="M155 1569 c-9 -17 -15 -33 -13 -35 3 -2 12 12 21 31 21 43 13 47 -8
4z"/>
<path d="M225 1572 c13 -14 115 -25 115 -12 0 6 -17 10 -37 10 -21 0 -49 3
-63 6 -17 5 -22 3 -15 -4z"/>
<path d="M537 1553 c-4 -3 -1 -13 7 -22 8 -9 16 -25 19 -36 4 -18 5 -18 6 3
l1 22 530 0 530 0 0 -50 c0 -48 -1 -50 -27 -51 l-28 -1 29 -9 c17 -4 32 -6 34
-4 3 2 5 34 6 71 l1 67 -550 -4 c-436 -3 -549 -1 -547 9 2 13 -1 15 -11 5z"/>
<path d="M1938 1527 c-26 -12 -48 -25 -48 -30 0 -4 22 4 49 17 27 14 52 22 56
18 5 -4 5 -1 1 6 -4 6 -8 12 -9 11 -1 0 -23 -11 -49 -22z"/>
<path d="M126 1505 c-9 -26 -7 -32 5 -12 6 10 9 21 6 23 -2 3 -7 -2 -11 -11z"/>
<path d="M170 1480 c0 -7 20 -16 98 -47 6 -3 12 0 12 6 0 6 -7 11 -15 11 -9 0
-34 9 -55 19 -22 11 -40 16 -40 11z"/>
<path d="M2070 1485 c0 -5 5 -17 10 -25 5 -8 10 -10 10 -5 0 6 -5 17 -10 25
-5 8 -10 11 -10 5z"/>
<path d="M101 1439 c-6 -18 -11 -37 -10 -43 0 -6 7 7 15 28 8 22 12 41 10 43
-2 2 -9 -10 -15 -28z"/>
<path d="M559 1455 c-8 -29 8 -68 23 -59 9 6 9 9 0 12 -36 12 -1 22 86 25 l97
3 -97 2 c-83 2 -97 4 -100 20 -3 15 -5 14 -9 -3z"/>
<path d="M1978 1437 c-27 -11 -48 -23 -48 -28 0 -5 8 -5 18 1 9 6 35 16 56 23
22 8 35 16 30 19 -5 3 -30 -4 -56 -15z"/>
<path d="M1480 1410 c-27 -9 -26 -10 8 -14 12 -2 27 3 33 11 13 15 0 16 -41 3z"/>
<path d="M145 1401 c4 -7 9 -10 12 -8 2 3 24 -1 49 -9 24 -7 44 -9 44 -5 0 5
-13 11 -29 14 -16 3 -41 9 -56 13 -21 5 -26 4 -20 -5z"/>
<path d="M687 1390 c3 -13 0 -20 -8 -20 -22 0 -11 -671 11 -678 12 -4 13 -2 3
9 -19 20 -18 647 1 672 7 9 17 17 21 17 4 0 14 -8 21 -17 18 -25 20 -653 2
-671 -8 -8 -8 -12 -1 -12 6 0 14 7 17 16 3 9 6 158 6 332 0 279 2 318 17 334
15 17 15 18 -6 18 -12 0 -19 -4 -16 -10 3 -5 1 -10 -6 -10 -6 0 -9 8 -6 20 4
17 0 20 -28 20 -28 0 -32 -3 -28 -20z"/>
<path d="M847 1390 c6 -21 -12 -28 -20 -7 -2 6 -8 9 -12 5 -4 -4 -3 -14 4 -22
9 -10 12 -101 11 -332 0 -176 -1 -325 0 -331 0 -7 8 -13 17 -13 13 0 14 3 5
12 -9 9 -12 97 -12 333 0 309 1 322 20 343 26 28 33 27 64 -2 l26 -23 0 -320
c0 -235 -3 -322 -12 -331 -15 -15 -1 -16 15 -1 9 9 11 91 9 330 -2 212 1 326
8 339 9 16 8 20 -5 20 -9 0 -13 -4 -10 -10 3 -5 2 -10 -4 -10 -19 0 -21 19 -4
29 14 8 4 10 -44 11 -56 0 -61 -2 -56 -20z"/>
<path d="M1048 1388 c3 -12 7 -17 9 -11 6 18 73 29 82 14 6 -9 11 -8 21 4 11
13 5 15 -53 15 -62 0 -65 -1 -59 -22z"/>
<path d="M1247 1399 c-14 -8 -15 -14 -7 -24 8 -9 10 -112 8 -339 -2 -179 1
-326 5 -326 5 0 5 -4 2 -10 -3 -5 2 -10 11 -10 14 0 15 3 6 12 -9 9 -12 98
-12 338 0 218 -4 330 -11 337 -7 7 -6 12 5 16 11 4 16 1 16 -10 0 -15 2 -15
14 2 8 12 20 16 34 12 12 -3 25 -1 28 4 7 13 -77 11 -99 -2z"/>
<path d="M2101 1400 c0 -8 4 -24 9 -35 5 -13 9 -14 9 -5 0 8 -4 24 -9 35 -5
13 -9 14 -9 5z"/>
<path d="M1364 1379 c0 -13 3 -15 13 -7 7 6 13 12 13 13 0 2 -6 5 -13 8 -7 3
-13 -3 -13 -14z"/>
<path d="M1424 1384 c14 -13 16 -58 16 -339 0 -300 -1 -324 -17 -328 -11 -3
-7 -5 10 -6 15 0 27 -5 27 -11 0 -5 5 -10 11 -10 8 0 8 4 1 13 -7 8 -13 133
-18 329 -6 253 -4 320 6 333 11 13 10 14 -5 8 -14 -5 -17 -3 -12 10 5 13 1 17
-14 17 -19 0 -19 -1 -5 -16z"/>
<path d="M1540 1389 c-12 -8 -10 -10 9 -5 41 9 51 -9 53 -98 l2 -81 3 75 c2
41 9 80 15 87 8 11 7 12 -7 6 -14 -5 -17 -3 -12 10 5 13 1 17 -21 17 -15 0
-34 -5 -42 -11z"/>
<path d="M596 1378 c5 -8 1 -9 -12 -4 -15 6 -17 5 -6 -5 17 -18 18 -649 0
-667 -7 -7 -9 -12 -4 -12 28 0 31 32 31 355 l0 330 35 6 35 6 -43 2 c-31 1
-41 -2 -36 -11z"/>
<path d="M1014 1381 c3 -5 6 -158 6 -340 1 -214 5 -331 11 -331 6 0 7 -4 4
-10 -4 -6 6 -10 22 -9 27 0 27 1 6 9 -25 10 -31 30 -10 30 6 0 4 5 -5 11 -13
7 -18 23 -18 54 l0 45 65 0 c58 0 65 2 65 20 0 11 -7 20 -15 20 -16 0 -18 14
-6 45 5 11 3 29 -2 40 -6 11 -13 27 -17 35 -12 26 -34 16 -41 -18 -5 -27 -4
-32 10 -28 21 7 46 -9 37 -23 -9 -15 -49 -14 -64 1 -9 9 -10 4 -3 -19 5 -18 7
-34 3 -37 -3 -3 16 -6 41 -6 26 0 47 -4 47 -10 0 -5 -22 -10 -50 -10 -39 0
-51 4 -60 20 -7 13 -11 105 -10 258 1 287 2 262 -11 262 -5 0 -8 -4 -5 -9z
m96 -392 c0 -11 -4 -17 -10 -14 -5 3 -10 13 -10 21 0 8 5 14 10 14 6 0 10 -9
10 -21z m-12 -93 c-7 -8 -17 -12 -22 -9 -4 3 -2 9 5 14 22 13 31 11 17 -5z"/>
<path d="M1175 1380 c3 -5 3 -10 -2 -10 -4 0 -7 -144 -5 -320 2 -303 2 -319
-15 -313 -15 5 -15 3 2 -10 11 -9 22 -17 25 -17 3 0 4 147 2 326 -2 239 0 329
9 340 9 11 8 14 -5 14 -10 0 -14 -4 -11 -10z"/>
<path d="M1520 1297 l5 -82 3 74 c2 41 -1 78 -5 82 -4 4 -6 -29 -3 -74z"/>
<path d="M2011 1346 c-25 -6 -47 -18 -49 -26 -4 -12 -2 -13 9 -4 8 7 33 15 57
19 23 4 42 11 42 16 0 11 -2 11 -59 -5z"/>
<path d="M72 1330 c0 -14 2 -19 5 -12 2 6 2 18 0 25 -3 6 -5 1 -5 -13z"/>
<path d="M175 1333 c-22 -3 -44 -8 -49 -13 -10 -10 73 -1 94 11 8 5 11 8 5 7
-5 -1 -28 -3 -50 -5z"/>
<path d="M2122 1320 c0 -14 2 -19 5 -12 2 6 2 18 0 25 -3 6 -5 1 -5 -13z"/>
<path d="M62 1280 c0 -14 2 -19 5 -12 2 6 2 18 0 25 -3 6 -5 1 -5 -13z"/>
<path d="M2132 1265 c0 -16 2 -22 5 -12 2 9 2 23 0 30 -3 6 -5 -1 -5 -18z"/>
<path d="M100 1239 c0 -5 5 -7 10 -4 6 3 10 8 10 11 0 2 -4 4 -10 4 -5 0 -10
-5 -10 -11z"/>
<path d="M53 1205 c0 -22 2 -30 4 -17 2 12 2 30 0 40 -3 9 -5 -1 -4 -23z"/>
<path d="M2079 1236 c-3 -3 -26 -6 -52 -7 -26 -2 -47 -7 -47 -12 0 -4 24 -5
53 -2 53 7 64 11 55 20 -2 3 -7 3 -9 1z"/>
<path d="M2143 1175 c0 -27 2 -38 4 -22 2 15 2 37 0 50 -2 12 -4 0 -4 -28z"/>
<path d="M100 1188 c0 -4 11 -8 24 -8 13 0 38 -3 55 -6 21 -4 31 -3 31 5 0 7
-3 10 -7 8 -5 -3 -29 -2 -55 3 -27 4 -48 3 -48 -2z"/>
<path d="M1606 968 c3 -159 1 -227 -6 -230 -7 -2 -4 -12 7 -25 18 -21 18 -20
15 46 -2 36 -7 149 -12 251 l-9 185 5 -227z"/>
<path d="M2007 1175 c-26 -19 -20 -27 7 -10 19 12 29 14 44 6 15 -8 23 -7 30
2 14 17 -58 19 -81 2z"/>
<path d="M1372 1130 c0 -14 2 -19 5 -12 2 6 2 18 0 25 -3 6 -5 1 -5 -13z"/>
<path d="M122 1123 c-7 -2 -17 -14 -24 -26 -11 -21 -10 -21 9 -4 23 20 64 22
81 5 9 -9 12 -9 12 0 0 22 -47 38 -78 25z"/>
<path d="M1372 916 c-2 -160 -5 -192 -19 -208 -9 -11 -11 -18 -5 -18 7 0 12 4
12 9 0 5 6 11 13 13 9 2 11 47 7 198 l-6 195 -2 -189z"/>
<path d="M2038 1057 c-27 -11 -48 -23 -48 -28 0 -4 19 0 43 10 23 10 49 21 57
23 7 2 10 7 5 10 -6 3 -31 -4 -57 -15z"/>
<path d="M2143 1015 c0 -27 2 -38 4 -22 2 15 2 37 0 50 -2 12 -4 0 -4 -28z"/>
<path d="M90 1030 c0 -6 27 -10 60 -10 33 0 60 4 60 10 0 6 -27 10 -60 10 -33
0 -60 -4 -60 -10z"/>
<path d="M53 995 c0 -22 2 -30 4 -17 2 12 2 30 0 40 -3 9 -5 -1 -4 -23z"/>
<path d="M156 947 c-28 -17 -44 -33 -37 -35 8 -3 16 0 20 5 3 6 21 18 39 27
17 9 32 21 32 26 0 13 4 14 -54 -23z"/>
<path d="M1980 972 c0 -4 17 -9 38 -10 20 -2 46 -5 57 -8 13 -4 17 -3 10 4
-12 12 -105 24 -105 14z"/>
<path d="M2132 930 c0 -14 2 -19 5 -12 2 6 2 18 0 25 -3 6 -5 1 -5 -13z"/>
<path d="M62 915 c0 -16 2 -22 5 -12 2 9 2 23 0 30 -3 6 -5 -1 -5 -18z"/>
<path d="M1528 826 l-3 -116 35 1 c32 1 32 2 9 8 -26 6 -27 7 -28 111 -1 57
-4 106 -6 108 -2 2 -5 -48 -7 -112z"/>
<path d="M1998 928 c-16 -5 -28 -14 -28 -19 0 -5 14 -2 30 6 27 14 31 14 36 0
7 -16 39 -21 48 -6 4 5 -3 7 -14 4 -12 -3 -22 1 -26 11 -7 18 -9 18 -46 4z"/>
<path d="M2121 874 c0 -11 3 -14 6 -6 3 7 2 16 -1 19 -3 4 -6 -2 -5 -13z"/>
<path d="M71 864 c0 -11 3 -14 6 -6 3 7 2 16 -1 19 -3 4 -6 -2 -5 -13z"/>
<path d="M2111 834 c0 -11 3 -14 6 -6 3 7 2 16 -1 19 -3 4 -6 -2 -5 -13z"/>
<path d="M81 824 c0 -11 3 -14 6 -6 3 7 2 16 -1 19 -3 4 -6 -2 -5 -13z"/>
<path d="M1970 830 l-25 -8 25 0 c14 -1 43 3 65 7 l40 9 -40 0 c-22 0 -51 -4
-65 -8z"/>
<path d="M2087 758 c-9 -29 -15 -54 -13 -56 2 -2 12 20 21 48 9 28 15 53 13
55 -2 3 -12 -19 -21 -47z"/>
<path d="M227 778 c-13 -14 -28 -19 -47 -16 -16 2 -27 1 -24 -4 15 -24 94 3
94 33 0 12 -2 11 -23 -13z"/>
<path d="M235 693 c-21 -26 -33 -44 -25 -41 16 5 76 76 69 82 -2 2 -22 -16
-44 -41z"/>
<path d="M120 707 c-1 -21 86 -174 140 -245 85 -113 216 -228 320 -282 39 -20
21 -6 -60 48 -152 100 -263 225 -351 395 -27 51 -49 89 -49 84z"/>
<path d="M1145 700 c-18 -8 -17 -9 8 -9 16 -1 26 3 22 9 -3 6 -7 10 -8 9 -1 0
-11 -4 -22 -9z"/>
<path d="M1650 692 c0 -5 18 -18 40 -30 23 -12 38 -18 35 -13 -8 14 -75 51
-75 43z"/>
<path d="M1912 694 c10 -9 108 -14 108 -5 0 4 -26 9 -57 10 -31 1 -54 -1 -51
-5z"/>
<path d="M535 680 c-3 -5 -1 -10 4 -10 6 0 11 5 11 10 0 6 -2 10 -4 10 -3 0
-8 -4 -11 -10z"/>
<path d="M1018 673 c12 -2 30 -2 40 0 9 3 -1 5 -23 4 -22 0 -30 -2 -17 -4z"/>
<path d="M1148 673 c34 -2 88 -2 120 0 31 2 3 3 -63 3 -66 0 -92 -1 -57 -3z"/>
<path d="M1880 661 c0 -6 23 -22 50 -36 28 -14 50 -22 50 -17 0 4 -16 14 -35
21 -19 7 -42 19 -50 27 -8 9 -15 11 -15 5z"/>
<path d="M2032 625 c-12 -25 -20 -45 -17 -45 7 0 47 81 43 86 -3 2 -14 -17
-26 -41z"/>
<path d="M518 653 c12 -2 30 -2 40 0 9 3 -1 5 -23 4 -22 0 -30 -2 -17 -4z"/>
<path d="M772 653 c108 -2 288 -2 400 0 112 1 23 2 -197 2 -220 0 -311 -1
-203 -2z"/>
<path d="M1413 653 c9 -2 23 -2 30 0 6 3 -1 5 -18 5 -16 0 -22 -2 -12 -5z"/>
<path d="M1098 633 c12 -2 30 -2 40 0 9 3 -1 5 -23 4 -22 0 -30 -2 -17 -4z"/>
<path d="M1213 633 c9 -2 23 -2 30 0 6 3 -1 5 -18 5 -16 0 -22 -2 -12 -5z"/>
<path d="M1358 633 c18 -2 45 -2 60 0 15 2 0 4 -33 4 -33 0 -45 -2 -27 -4z"/>
<path d="M1483 633 c15 -2 39 -2 55 0 15 2 2 4 -28 4 -30 0 -43 -2 -27 -4z"/>
<path d="M1743 625 c0 -8 4 -12 9 -9 5 3 6 10 3 15 -9 13 -12 11 -12 -6z"/>
<path d="M450 621 c0 -6 4 -13 10 -16 6 -3 7 1 4 9 -7 18 -14 21 -14 7z"/>
<path d="M1975 528 c-75 -116 -167 -209 -305 -311 -25 -18 -25 -18 5 -1 54 30
164 125 213 183 57 66 130 171 119 171 -2 0 -17 -19 -32 -42z"/>
<path d="M890 516 c0 -14 4 -27 8 -30 5 -3 6 8 4 25 -5 35 -12 38 -12 5z"/>
<path d="M1245 529 c-4 -6 -5 -12 -2 -15 2 -3 7 2 10 11 7 17 1 20 -8 4z"/>
<path d="M1126 508 c10 -14 21 -24 23 -22 3 3 -6 15 -18 27 l-24 22 19 -27z"/>
<path d="M1317 511 c-4 -17 -3 -21 5 -13 5 5 8 16 6 23 -3 8 -7 3 -11 -10z"/>
<path d="M1813 506 c12 -9 14 -16 8 -21 -6 -3 -11 -12 -11 -18 0 -7 5 -4 11 6
9 15 13 16 27 5 15 -11 15 -11 5 3 -10 12 -10 18 0 29 10 12 9 12 -5 2 -11 -9
-18 -10 -23 -2 -3 5 -12 10 -18 10 -7 0 -4 -7 6 -14z"/>
<path d="M350 503 c0 -6 5 -15 10 -18 8 -5 7 -12 -2 -23 -10 -14 -10 -15 2 -5
11 10 17 10 29 0 12 -10 13 -9 7 1 -4 7 -2 19 4 27 8 10 9 15 2 15 -6 0 -14
-5 -17 -11 -5 -6 -12 -4 -21 8 -7 10 -14 13 -14 6z"/>
<path d="M951 494 c0 -11 3 -14 6 -6 3 7 2 16 -1 19 -3 4 -6 -2 -5 -13z"/>
<path d="M1110 410 c11 -16 26 -33 32 -36 7 -4 -1 9 -16 29 -34 44 -46 50 -16
7z"/>
<path d="M1273 400 c0 -25 2 -35 4 -22 2 12 2 32 0 45 -2 12 -4 2 -4 -23z"/>
<path d="M496 392 c-3 -20 -9 -48 -13 -61 -4 -18 -3 -22 6 -17 7 5 10 10 7 13
-2 3 1 25 9 49 7 24 10 46 5 49 -4 2 -10 -12 -14 -33z"/>
<path d="M853 395 c0 -22 2 -30 4 -17 2 12 2 30 0 40 -3 9 -5 -1 -4 -23z"/>
<path d="M943 395 c0 -22 2 -30 4 -17 2 12 2 30 0 40 -3 9 -5 -1 -4 -23z"/>
<path d="M1037 418 c-2 -7 -1 -22 3 -33 6 -16 8 -13 7 13 0 35 -2 39 -10 20z"/>
<path d="M1343 395 c0 -22 2 -30 4 -17 2 12 2 30 0 40 -3 9 -5 -1 -4 -23z"/>
<path d="M1402 405 c0 -16 2 -22 5 -12 2 9 2 23 0 30 -3 6 -5 -1 -5 -18z"/>
<path d="M1700 390 c35 -28 78 -49 84 -42 6 5 -90 62 -103 62 -3 0 5 -9 19
-20z"/>
<path d="M543 325 c-17 -24 -29 -46 -26 -49 3 -3 18 11 32 32 38 52 43 62 34
61 -4 0 -22 -20 -40 -44z"/>
<path d="M626 288 c-18 -26 -21 -54 -6 -63 6 -3 7 1 4 10 -4 10 3 29 15 46 12
16 17 29 12 29 -5 0 -17 -10 -25 -22z"/>
<path d="M1520 302 c0 -4 24 -16 53 -27 28 -11 55 -21 60 -23 4 -2 7 1 7 7 0
6 -7 11 -15 11 -9 0 -33 9 -55 20 -43 22 -50 24 -50 12z"/>
<path d="M1710 299 c0 -5 5 -7 10 -4 6 3 10 8 10 11 0 2 -4 4 -10 4 -5 0 -10
-5 -10 -11z"/>
<path d="M724 272 c10 -17 -12 -62 -36 -72 -18 -7 -19 -9 -5 -9 38 -2 75 67
45 85 -6 4 -8 3 -4 -4z"/>
<path d="M1451 218 c21 -53 29 -68 29 -54 0 18 -35 106 -42 106 -4 0 2 -24 13
-52z"/>
<path d="M806 224 c-17 -17 -21 -59 -7 -68 5 -4 7 3 4 14 -3 11 2 31 11 45 19
28 15 33 -8 9z"/>
<path d="M886 227 c3 -10 9 -15 12 -12 3 3 0 11 -7 18 -10 9 -11 8 -5 -6z"/>
<path d="M1323 226 c3 -8 11 -33 17 -56 6 -23 13 -40 15 -39 6 8 -19 109 -28
109 -5 0 -7 -6 -4 -14z"/>
<path d="M1280 219 c0 -5 5 -7 10 -4 6 3 10 8 10 11 0 2 -4 4 -10 4 -5 0 -10
-5 -10 -11z"/>
<path d="M992 160 c11 -34 22 -59 25 -56 7 6 -26 104 -37 111 -5 3 0 -22 12
-55z"/>
<path d="M1176 160 c26 -27 50 -47 53 -45 6 7 -80 95 -92 95 -5 0 13 -22 39
-50z"/>
<path d="M1608 184 c-38 -20 -36 -28 2 -9 17 9 30 18 30 20 0 7 -1 6 -32 -11z"/>
<path d="M876 154 c-10 -25 1 -29 14 -5 6 12 7 21 1 21 -5 0 -12 -7 -15 -16z"/>
<path d="M1510 135 c-14 -8 -20 -14 -15 -14 6 0 21 6 35 14 14 8 21 14 15 14
-5 0 -21 -6 -35 -14z"/>
<path d="M680 130 c8 -5 20 -10 25 -10 6 0 3 5 -5 10 -8 5 -19 10 -25 10 -5 0
-3 -5 5 -10z"/>
<path d="M730 110 c8 -5 20 -10 25 -10 6 0 3 5 -5 10 -8 5 -19 10 -25 10 -5 0
-3 -5 5 -10z"/>
<path d="M1430 105 c-19 -7 -28 -14 -20 -14 8 0 29 6 45 14 39 17 21 18 -25 0z"/>
<path d="M785 90 c11 -5 27 -9 35 -9 9 0 8 4 -5 9 -11 5 -27 9 -35 9 -9 0 -8
-4 5 -9z"/>
<path d="M848 73 c7 -3 16 -2 19 1 4 3 -2 6 -13 5 -11 0 -14 -3 -6 -6z"/>
<path d="M1338 73 c7 -3 16 -2 19 1 4 3 -2 6 -13 5 -11 0 -14 -3 -6 -6z"/>
<path d="M898 63 c7 -3 16 -2 19 1 4 3 -2 6 -13 5 -11 0 -14 -3 -6 -6z"/>
<path d="M1278 63 c6 -2 18 -2 25 0 6 3 1 5 -13 5 -14 0 -19 -2 -12 -5z"/>
<path d="M953 53 c9 -2 25 -2 35 0 9 3 1 5 -18 5 -19 0 -27 -2 -17 -5z"/>
<path d="M1213 53 c9 -2 25 -2 35 0 9 3 1 5 -18 5 -19 0 -27 -2 -17 -5z"/>
<path d="M1068 43 c17 -2 47 -2 65 0 17 2 3 4 -33 4 -36 0 -50 -2 -32 -4z"/>
</g>
</svg>
